# xmcd
#
# Track frame offsets:
#	150
#	17503
#	38772
#	57051
#	74034
#	92138
#	108136
#	127245
#	151513
#	168616
#	187805
#	209094
#	220870
#	235901
#
# Disc length: 3426
#
# Revision: 31
# Processed by: cddbd v1.5.1PL0 Copyright (c) Steve Scherf et al.
# Submitted via: CDex 1.51
# Normalized: r30:DSETVAR1
#
DISCID=bf0d600e
DTITLE=Various Artist - Roma Alta Moda - The Show [CD1)
DYEAR=2003
DGENRE=New Age
TTITLE0=Stigmato - Reality Check
TTITLE1=Gerardo Frisina - Mas Eu Quer Ser
TTITLE2=Zimpala - Sugar
TTITLE3=Infracom pres. - People Come Running (re jazz version)
TTITLE4=Floris feat. Rose - Nothing To It
TTITLE5=De-Phazz - Jazz Music (Strings)
TTITLE6=Thievery Corporation - State Of The Union
TTITLE7=Rose Smith - Life Changes
TTITLE8=Adelante - Obsession
TTITLE9=Dahlia - Pedro
TTITLE10=Mystic Diversions - Beneath Another Sky
TTITLE11=Dusty Springfield - Spookie
TTITLE12=Ollano - Latitudes
TTITLE13=Lisa Ono - Roma Nun Fa La Stupida Stasera
EXTD=YEAR: 2003
EXTT0=
EXTT1=
EXTT2=
EXTT3=
EXTT4=
EXTT5=
EXTT6=
EXTT7=
EXTT8=
EXTT9=
EXTT10=
EXTT11=
EXTT12=
EXTT13=
PLAYORDER=
